<?xml version="1.0" encoding="utf-8"?>
<!-- Generator: Adobe Illustrator 16.0.0, SVG Export Plug-In . SVG Version: 6.00 Build 0)  -->
<!DOCTYPE svg PUBLIC "-//W3C//DTD SVG 1.1//EN" "http://www.w3.org/Graphics/SVG/1.1/DTD/svg11.dtd">
<svg version="1.1" id="Layer_1" xmlns="http://www.w3.org/2000/svg" xmlns:xlink="http://www.w3.org/1999/xlink" x="0px" y="0px"
	 width="269px" height="165px" viewBox="0 0 269 165" enable-background="new 0 0 269 165" xml:space="preserve">
<g>
	<path fill="#1D1D1B" d="M132.361,60.08h-1.14v-4.725h-5.164v4.725h-1.14V50.04h1.14v4.272h5.164V50.04h1.14V60.08z"/>
	<path fill="#1D1D1B" d="M135.201,50.514c0-0.261,0.063-0.452,0.188-0.574c0.125-0.121,0.282-0.182,0.469-0.182
		c0.179,0,0.333,0.062,0.463,0.185c0.129,0.124,0.194,0.314,0.194,0.57s-0.065,0.447-0.194,0.573
		c-0.13,0.126-0.284,0.189-0.463,0.189c-0.188,0-0.344-0.063-0.469-0.189C135.264,50.961,135.201,50.77,135.201,50.514z
		 M136.408,60.08h-1.113v-7.527h1.113V60.08z"/>
	<path fill="#1D1D1B" d="M145.197,52.553v0.721l-1.362,0.165c0.125,0.161,0.237,0.37,0.335,0.628
		c0.098,0.259,0.147,0.551,0.147,0.876c0,0.737-0.246,1.325-0.738,1.765c-0.492,0.439-1.167,0.659-2.025,0.659
		c-0.219,0-0.425-0.018-0.617-0.055c-0.474,0.256-0.711,0.579-0.711,0.968c0,0.206,0.083,0.358,0.248,0.457
		c0.166,0.099,0.449,0.148,0.852,0.148h1.301c0.796,0,1.407,0.171,1.834,0.515c0.427,0.343,0.64,0.842,0.64,1.497
		c0,0.833-0.326,1.468-0.979,1.906c-0.653,0.437-1.605,0.656-2.857,0.656c-0.961,0-1.703-0.183-2.223-0.549
		c-0.521-0.367-0.781-0.884-0.781-1.552c0-0.458,0.143-0.854,0.429-1.188s0.688-0.561,1.207-0.68
		c-0.188-0.087-0.345-0.222-0.473-0.405s-0.191-0.396-0.191-0.639c0-0.275,0.072-0.515,0.215-0.721s0.369-0.405,0.677-0.598
		c-0.38-0.16-0.69-0.433-0.929-0.817c-0.239-0.384-0.359-0.824-0.359-1.318c0-0.824,0.241-1.459,0.724-1.906
		s1.167-0.669,2.052-0.669c0.385,0,0.731,0.046,1.04,0.137H145.197z M139.335,61.344c0,0.407,0.168,0.716,0.503,0.927
		c0.335,0.21,0.816,0.316,1.442,0.316c0.935,0,1.626-0.144,2.076-0.429c0.45-0.287,0.674-0.674,0.674-1.164
		c0-0.408-0.123-0.69-0.369-0.848c-0.246-0.158-0.708-0.237-1.388-0.237h-1.334c-0.505,0-0.899,0.124-1.18,0.371
		C139.477,60.526,139.335,60.881,139.335,61.344z M139.939,54.964c0,0.526,0.146,0.925,0.436,1.195s0.695,0.405,1.214,0.405
		c1.086,0,1.63-0.54,1.63-1.621c0-1.131-0.55-1.696-1.65-1.696c-0.523,0-0.925,0.144-1.207,0.433
		C140.08,53.968,139.939,54.396,139.939,54.964z"/>
	<path fill="#1D1D1B" d="M152.148,60.08v-4.869c0-0.613-0.137-1.071-0.409-1.374c-0.273-0.302-0.7-0.453-1.281-0.453
		c-0.773,0-1.338,0.215-1.693,0.646s-0.533,1.135-0.533,2.115v3.935h-1.113V49.394h1.113v3.235c0,0.389-0.018,0.712-0.054,0.968
		h0.067c0.219-0.362,0.531-0.646,0.936-0.855c0.404-0.208,0.866-0.313,1.385-0.313c0.899,0,1.573,0.219,2.022,0.656
		c0.449,0.438,0.674,1.132,0.674,2.084v4.91H152.148z"/>
	<path fill="#1D1D1B" d="M172.407,60.08l-3.326-8.9h-0.055c0.063,0.705,0.094,1.543,0.094,2.514v6.387h-1.053V50.04h1.717
		l3.105,8.282h0.054l3.132-8.282h1.703V60.08h-1.14v-6.469c0-0.742,0.031-1.547,0.094-2.417h-0.054l-3.354,8.887H172.407z"/>
	<path fill="#1D1D1B" d="M183.817,60.217c-1.086,0-1.943-0.338-2.572-1.016c-0.628-0.678-0.941-1.619-0.941-2.823
		c0-1.213,0.291-2.177,0.875-2.891c0.583-0.714,1.366-1.071,2.35-1.071c0.922,0,1.65,0.31,2.188,0.931
		c0.535,0.62,0.805,1.438,0.805,2.455v0.721h-5.064c0.023,0.884,0.24,1.555,0.654,2.012c0.414,0.458,0.996,0.687,1.747,0.687
		c0.792,0,1.573-0.169,2.347-0.508v1.017c-0.393,0.174-0.766,0.299-1.116,0.374C184.737,60.18,184.313,60.217,183.817,60.217z
		 M183.516,53.371c-0.591,0-1.062,0.197-1.412,0.59c-0.351,0.394-0.558,0.939-0.62,1.635h3.843c0-0.719-0.157-1.27-0.47-1.652
		S184.097,53.371,183.516,53.371z"/>
	<path fill="#1D1D1B" d="M193.833,59.07h-0.061c-0.514,0.765-1.283,1.147-2.307,1.147c-0.961,0-1.709-0.336-2.243-1.009
		c-0.534-0.673-0.802-1.63-0.802-2.871s0.269-2.205,0.805-2.892c0.537-0.687,1.283-1.03,2.24-1.03c0.997,0,1.762,0.371,2.294,1.112
		h0.087l-0.047-0.542l-0.027-0.529v-3.063h1.113V60.08h-0.904L193.833,59.07z M191.606,59.263c0.76,0,1.312-0.211,1.653-0.635
		c0.343-0.423,0.513-1.106,0.513-2.05v-0.24c0-1.067-0.173-1.828-0.52-2.284c-0.346-0.456-0.899-0.683-1.66-0.683
		c-0.652,0-1.152,0.26-1.498,0.779c-0.347,0.52-0.52,1.253-0.52,2.201c0,0.961,0.172,1.687,0.516,2.177
		C190.435,59.018,190.94,59.263,191.606,59.263z"/>
	<path fill="#1D1D1B" d="M213.746,60.08V50.04h1.14v8.983h4.326v1.058H213.746z"/>
	<path fill="#1D1D1B" d="M227.464,56.31c0,1.227-0.302,2.185-0.906,2.875c-0.604,0.689-1.438,1.033-2.501,1.033
		c-0.657,0-1.241-0.158-1.751-0.474c-0.509-0.316-0.902-0.769-1.18-1.36s-0.416-1.282-0.416-2.074c0-1.227,0.3-2.183,0.898-2.867
		c0.6-0.684,1.432-1.026,2.495-1.026c1.028,0,1.846,0.35,2.452,1.051C227.161,54.167,227.464,55.115,227.464,56.31z M221.864,56.31
		c0,0.962,0.188,1.694,0.563,2.198c0.376,0.504,0.928,0.755,1.656,0.755c0.729,0,1.283-0.25,1.66-0.752
		c0.378-0.501,0.566-1.235,0.566-2.201c0-0.957-0.188-1.684-0.566-2.18c-0.377-0.497-0.936-0.745-1.673-0.745
		c-0.729,0-1.278,0.245-1.649,0.735S221.864,55.339,221.864,56.31z"/>
	<path fill="#1D1D1B" d="M235.829,60.08l-1.348-4.416c-0.085-0.27-0.244-0.883-0.477-1.84h-0.053
		c-0.18,0.801-0.336,1.419-0.47,1.854l-1.388,4.402h-1.288l-2.005-7.527h1.166c0.475,1.891,0.836,3.331,1.084,4.32
		c0.248,0.989,0.39,1.655,0.426,1.999h0.053c0.05-0.261,0.129-0.599,0.238-1.013c0.109-0.414,0.205-0.743,0.285-0.985l1.348-4.32
		h1.207l1.314,4.32c0.251,0.788,0.421,1.449,0.51,1.984h0.055c0.018-0.165,0.065-0.418,0.144-0.762
		c0.079-0.343,0.544-2.19,1.398-5.542h1.153l-2.031,7.527H235.829z"/>
</g>
<g>
	<path d="M156.496,30.316c-0.372,0.192-1.151,0.384-2.136,0.384c-2.278,0-3.981-1.439-3.981-4.09c0-2.531,1.715-4.234,4.222-4.234
		c0.995,0,1.644,0.216,1.919,0.348l-0.264,0.863c-0.384-0.192-0.947-0.336-1.619-0.336c-1.895,0-3.154,1.211-3.154,3.322
		c0,1.979,1.14,3.238,3.095,3.238c0.647,0,1.295-0.132,1.715-0.336L156.496,30.316z"/>
	<path d="M160.014,30.712c-1.56,0-2.782-1.151-2.782-2.986c0-1.943,1.283-3.082,2.878-3.082c1.667,0,2.795,1.211,2.795,2.974
		c0,2.159-1.499,3.094-2.879,3.094H160.014z M160.062,29.92c1.008,0,1.763-0.947,1.763-2.267c0-0.983-0.491-2.219-1.738-2.219
		c-1.235,0-1.775,1.151-1.775,2.254c0,1.271,0.72,2.231,1.739,2.231H160.062z"/>
	<path d="M166.602,30.712c-1.56,0-2.782-1.151-2.782-2.986c0-1.943,1.283-3.082,2.878-3.082c1.667,0,2.795,1.211,2.795,2.974
		c0,2.159-1.499,3.094-2.879,3.094H166.602z M166.649,29.92c1.008,0,1.763-0.947,1.763-2.267c0-0.983-0.491-2.219-1.738-2.219
		c-1.235,0-1.775,1.151-1.775,2.254c0,1.271,0.72,2.231,1.739,2.231H166.649z"/>
	<path d="M170.827,26.586c0-0.684-0.013-1.271-0.049-1.811h0.924l0.048,1.139h0.036c0.264-0.779,0.911-1.271,1.619-1.271
		c0.108,0,0.191,0.012,0.288,0.024v0.995c-0.108-0.012-0.216-0.024-0.36-0.024c-0.743,0-1.271,0.564-1.415,1.343
		c-0.023,0.156-0.036,0.324-0.036,0.492v3.106h-1.055V26.586z"/>
	<path d="M179.644,22.065v7.016c0,0.516,0.012,1.103,0.048,1.499h-0.947l-0.048-1.007h-0.024c-0.323,0.647-1.02,1.139-1.967,1.139
		c-1.403,0-2.494-1.187-2.494-2.95c-0.013-1.943,1.199-3.118,2.603-3.118c0.899,0,1.499,0.419,1.751,0.875h0.023v-3.454H179.644z
		 M178.588,27.138c0-0.144-0.012-0.312-0.048-0.456c-0.155-0.66-0.731-1.211-1.523-1.211c-1.091,0-1.738,0.959-1.738,2.231
		c0,1.188,0.588,2.159,1.715,2.159c0.708,0,1.355-0.479,1.547-1.271c0.036-0.132,0.048-0.276,0.048-0.444V27.138z"/>
	<path d="M181.902,23.792c-0.384,0-0.636-0.3-0.636-0.648c0-0.372,0.265-0.66,0.66-0.66c0.384,0,0.647,0.288,0.647,0.66
		c0,0.348-0.252,0.648-0.659,0.648H181.902z M181.399,30.58v-5.805h1.055v5.805H181.399z"/>
	<path d="M184.207,26.346c0-0.611-0.013-1.091-0.049-1.571h0.936l0.061,0.947h0.023c0.288-0.54,0.96-1.079,1.919-1.079
		c0.804,0,2.051,0.479,2.051,2.47v3.466h-1.055v-3.346c0-0.936-0.348-1.727-1.344-1.727c-0.684,0-1.224,0.492-1.415,1.08
		c-0.048,0.132-0.072,0.324-0.072,0.492v3.502h-1.055V26.346z"/>
	<path d="M194.956,29.189c0,0.503,0.024,0.995,0.084,1.391h-0.947l-0.096-0.731h-0.036c-0.312,0.456-0.947,0.863-1.775,0.863
		c-1.175,0-1.774-0.828-1.774-1.667c0-1.403,1.247-2.171,3.49-2.159v-0.12c0-0.479-0.132-1.355-1.319-1.343
		c-0.552,0-1.115,0.156-1.523,0.432l-0.24-0.708c0.48-0.3,1.188-0.503,1.919-0.503c1.787,0,2.219,1.211,2.219,2.375V29.189z
		 M193.925,27.618c-1.151-0.024-2.458,0.18-2.458,1.307c0,0.696,0.455,1.008,0.983,1.008c0.768,0,1.259-0.48,1.427-0.972
		c0.036-0.108,0.048-0.228,0.048-0.336V27.618z"/>
	<path d="M197.873,23.384v1.391h1.512v0.803h-1.512v3.119c0,0.719,0.204,1.127,0.792,1.127c0.288,0,0.456-0.024,0.611-0.072
		l0.048,0.804c-0.203,0.072-0.527,0.144-0.936,0.144c-0.491,0-0.887-0.168-1.139-0.444c-0.288-0.324-0.408-0.84-0.408-1.523v-3.154
		h-0.899v-0.803h0.899v-1.067L197.873,23.384z"/>
	<path d="M201.078,23.792c-0.384,0-0.636-0.3-0.636-0.648c0-0.372,0.265-0.66,0.66-0.66c0.384,0,0.647,0.288,0.647,0.66
		c0,0.348-0.252,0.648-0.659,0.648H201.078z M200.575,30.58v-5.805h1.055v5.805H200.575z"/>
	<path d="M205.745,30.712c-1.56,0-2.782-1.151-2.782-2.986c0-1.943,1.283-3.082,2.878-3.082c1.667,0,2.795,1.211,2.795,2.974
		c0,2.159-1.499,3.094-2.879,3.094H205.745z M205.793,29.92c1.008,0,1.763-0.947,1.763-2.267c0-0.983-0.491-2.219-1.738-2.219
		c-1.235,0-1.775,1.151-1.775,2.254c0,1.271,0.72,2.231,1.739,2.231H205.793z"/>
	<path d="M209.971,26.346c0-0.611-0.013-1.091-0.049-1.571h0.936l0.061,0.947h0.023c0.288-0.54,0.96-1.079,1.919-1.079
		c0.804,0,2.051,0.479,2.051,2.47v3.466h-1.055v-3.346c0-0.936-0.348-1.727-1.344-1.727c-0.684,0-1.224,0.492-1.415,1.08
		c-0.048,0.132-0.072,0.324-0.072,0.492v3.502h-1.055V26.346z"/>
</g>
<g>
	<path d="M16.752,112.845v-1.056h7.208v-3.454h0.875v4.51H16.752z"/>
	<path d="M22.125,106.773c1.415-0.023,2.003-0.923,2.003-1.979c0-0.756-0.132-1.224-0.3-1.607l0.755-0.191
		c0.168,0.372,0.372,1.02,0.372,1.942c0,1.775-1.188,2.854-2.927,2.854c-1.751,0-3.13-1.043-3.13-2.734
		c0-1.895,1.667-2.387,2.734-2.387c0.216,0,0.372,0.013,0.492,0.036V106.773z M21.369,103.691c-0.671-0.012-1.715,0.276-1.715,1.451
		c0,1.079,0.983,1.535,1.715,1.619V103.691z"/>
	<path d="M19.031,100.954l3.25-1.14c0.54-0.191,1.02-0.348,1.5-0.468V99.31c-0.48-0.132-0.96-0.3-1.5-0.491l-3.25-1.128v-1.103
		l5.805,2.278v1.008l-5.805,2.206V100.954z"/>
	<path d="M22.125,95.109c1.415-0.023,2.003-0.923,2.003-1.979c0-0.756-0.132-1.224-0.3-1.607l0.755-0.191
		c0.168,0.372,0.372,1.02,0.372,1.942c0,1.775-1.188,2.854-2.927,2.854c-1.751,0-3.13-1.043-3.13-2.734
		c0-1.895,1.667-2.387,2.734-2.387c0.216,0,0.372,0.013,0.492,0.036V95.109z M21.369,92.027c-0.671-0.012-1.715,0.276-1.715,1.451
		c0,1.079,0.983,1.535,1.715,1.619V92.027z"/>
	<path d="M16.32,89.697v-1.055h8.515v1.055H16.32z"/>
</g>
<rect x="124.762" y="69.315" fill="#286DA9" width="26.166" height="20.092"/>
<rect x="124.762" y="90.698" fill="#B75B2E" width="26.166" height="20.092"/>
<rect x="124.762" y="112.081" fill="#537E00" width="26.166" height="20.092"/>
<rect x="169.769" y="69.315" fill="#73A0C7" width="26.166" height="20.092"/>
<rect x="169.769" y="90.698" fill="#D09477" width="26.166" height="20.092"/>
<rect x="169.769" y="112.081" fill="#8FAB59" width="26.166" height="20.091"/>
<rect x="214.056" y="69.12" fill="#A9C5DD" width="26.166" height="20.092"/>
<rect x="214.056" y="90.502" fill="#E2BDAB" width="26.166" height="20.092"/>
<rect x="214.056" y="112.276" fill="#BACB99" width="26.166" height="20.092"/>
<g>
	<path d="M52.002,78.458c-0.372,0.192-1.151,0.384-2.135,0.384c-2.279,0-3.982-1.439-3.982-4.09c0-2.531,1.715-4.234,4.222-4.234
		c0.996,0,1.643,0.216,1.919,0.348l-0.264,0.863c-0.384-0.192-0.948-0.336-1.619-0.336c-1.895,0-3.154,1.211-3.154,3.322
		c0,1.979,1.139,3.238,3.094,3.238c0.648,0,1.295-0.132,1.715-0.336L52.002,78.458z"/>
	<path d="M53.757,76.011c0.024,1.415,0.923,2.003,1.979,2.003c0.755,0,1.223-0.132,1.607-0.3l0.192,0.755
		c-0.372,0.168-1.019,0.372-1.943,0.372c-1.775,0-2.854-1.188-2.854-2.927c0-1.751,1.043-3.13,2.735-3.13
		c1.895,0,2.387,1.667,2.387,2.734c0,0.216-0.012,0.372-0.036,0.492H53.757z M56.84,75.255c0.012-0.671-0.276-1.715-1.451-1.715
		c-1.08,0-1.535,0.983-1.619,1.715H56.84z"/>
	<path d="M59.169,74.487c0-0.611-0.012-1.091-0.048-1.571h0.936l0.06,0.947h0.024c0.288-0.54,0.959-1.079,1.919-1.079
		c0.803,0,2.051,0.479,2.051,2.47v3.466h-1.056v-3.346c0-0.936-0.348-1.727-1.343-1.727c-0.684,0-1.223,0.492-1.415,1.08
		c-0.048,0.132-0.072,0.324-0.072,0.492v3.502h-1.056V74.487z"/>
	<path d="M67.053,71.525v1.392h1.511v0.803h-1.511v3.119c0,0.719,0.204,1.127,0.792,1.127c0.288,0,0.456-0.024,0.612-0.072
		l0.048,0.804c-0.204,0.072-0.528,0.144-0.936,0.144c-0.492,0-0.888-0.168-1.14-0.444c-0.288-0.324-0.408-0.84-0.408-1.523V73.72
		h-0.899v-0.803h0.899v-1.067L67.053,71.525z"/>
	<path d="M69.753,74.728c0-0.684-0.012-1.271-0.048-1.811h0.923l0.048,1.139h0.036c0.264-0.779,0.912-1.271,1.619-1.271
		c0.108,0,0.192,0.012,0.288,0.024v0.995c-0.108-0.012-0.216-0.024-0.36-0.024c-0.744,0-1.271,0.564-1.416,1.343
		c-0.024,0.156-0.036,0.324-0.036,0.492v3.106h-1.056V74.728z"/>
	<path d="M77.708,77.33c0,0.503,0.024,0.995,0.084,1.391h-0.948l-0.096-0.731h-0.036c-0.312,0.456-0.947,0.863-1.775,0.863
		c-1.175,0-1.775-0.828-1.775-1.667c0-1.403,1.247-2.171,3.49-2.159v-0.12c0-0.479-0.132-1.355-1.319-1.343
		c-0.552,0-1.116,0.156-1.523,0.432l-0.24-0.708c0.479-0.3,1.187-0.503,1.919-0.503c1.787,0,2.219,1.211,2.219,2.375V77.33z
		 M76.676,75.759c-1.151-0.024-2.458,0.18-2.458,1.307c0,0.696,0.456,1.008,0.983,1.008c0.768,0,1.259-0.48,1.427-0.972
		c0.036-0.108,0.048-0.228,0.048-0.336V75.759z"/>
	<path d="M79.401,70.206h1.056v8.515h-1.056V70.206z"/>
	<path d="M82.737,71.933c-0.384,0-0.636-0.3-0.636-0.648c0-0.372,0.264-0.66,0.66-0.66c0.384,0,0.647,0.288,0.647,0.66
		c0,0.348-0.252,0.648-0.66,0.648H82.737z M82.233,78.721v-5.805h1.056v5.805H82.233z"/>
	<path d="M84.897,77.642c0.324,0.192,0.875,0.408,1.403,0.408c0.756,0,1.115-0.372,1.115-0.863c0-0.504-0.3-0.768-1.067-1.056
		c-1.055-0.384-1.547-0.959-1.547-1.643c0-0.935,0.768-1.703,2.003-1.703c0.587,0,1.103,0.156,1.415,0.359L87.967,73.9
		c-0.228-0.132-0.647-0.336-1.187-0.336c-0.624,0-0.959,0.36-0.959,0.792c0,0.48,0.335,0.696,1.091,0.996
		c0.995,0.372,1.523,0.875,1.523,1.739c0,1.031-0.803,1.751-2.159,1.751c-0.636,0-1.223-0.168-1.631-0.408L84.897,77.642z"/>
	<path d="M90.393,76.011c0.024,1.415,0.924,2.003,1.979,2.003c0.755,0,1.223-0.132,1.607-0.3l0.192,0.755
		c-0.372,0.168-1.019,0.372-1.943,0.372c-1.775,0-2.854-1.188-2.854-2.927c0-1.751,1.043-3.13,2.735-3.13
		c1.895,0,2.387,1.667,2.387,2.734c0,0.216-0.012,0.372-0.036,0.492H90.393z M93.475,75.255c0.012-0.671-0.276-1.715-1.451-1.715
		c-1.08,0-1.535,0.983-1.619,1.715H93.475z"/>
	<path d="M100.818,70.206v7.016c0,0.516,0.012,1.103,0.048,1.499h-0.947l-0.048-1.007h-0.024c-0.324,0.647-1.02,1.139-1.967,1.139
		c-1.403,0-2.495-1.188-2.495-2.95c-0.012-1.943,1.2-3.118,2.603-3.118c0.9,0,1.5,0.419,1.751,0.875h0.024v-3.454H100.818z
		 M99.763,75.279c0-0.144-0.012-0.312-0.048-0.456c-0.156-0.66-0.731-1.211-1.523-1.211c-1.091,0-1.739,0.959-1.739,2.231
		c0,1.188,0.588,2.159,1.715,2.159c0.708,0,1.355-0.479,1.547-1.271c0.036-0.132,0.048-0.276,0.048-0.444V75.279z"/>
	<path d="M46.354,94.823c0.648-0.096,1.403-0.168,2.231-0.168c1.499,0,2.566,0.348,3.274,1.007c0.732,0.66,1.151,1.595,1.151,2.902
		c0,1.319-0.419,2.399-1.163,3.143c-0.768,0.755-2.015,1.163-3.586,1.163c-0.756,0-1.367-0.024-1.907-0.096V94.823z M47.409,101.983
		c0.264,0.048,0.647,0.048,1.055,0.048c2.231,0.012,3.442-1.248,3.442-3.43c0.012-1.907-1.067-3.118-3.274-3.118
		c-0.54,0-0.947,0.048-1.223,0.108V101.983z"/>
	<path d="M54.969,100.088c0.024,1.415,0.923,2.003,1.979,2.003c0.755,0,1.223-0.132,1.607-0.3l0.192,0.755
		c-0.372,0.168-1.019,0.372-1.943,0.372c-1.775,0-2.854-1.188-2.854-2.927c0-1.751,1.043-3.13,2.735-3.13
		c1.895,0,2.387,1.667,2.387,2.734c0,0.216-0.012,0.372-0.036,0.492H54.969z M58.052,99.333c0.012-0.671-0.276-1.715-1.451-1.715
		c-1.08,0-1.535,0.983-1.619,1.715H58.052z"/>
	<path d="M64.519,102.583c-0.276,0.132-0.887,0.336-1.667,0.336c-1.751,0-2.891-1.188-2.891-2.962c0-1.787,1.224-3.094,3.119-3.094
		c0.624,0,1.175,0.156,1.463,0.312l-0.24,0.804c-0.252-0.132-0.647-0.276-1.223-0.276c-1.332,0-2.051,0.996-2.051,2.195
		c0,1.343,0.864,2.171,2.015,2.171c0.6,0,0.996-0.144,1.295-0.276L64.519,102.583z"/>
	<path d="M66.285,100.088c0.024,1.415,0.923,2.003,1.979,2.003c0.755,0,1.223-0.132,1.607-0.3l0.192,0.755
		c-0.372,0.168-1.019,0.372-1.943,0.372c-1.775,0-2.854-1.188-2.854-2.927c0-1.751,1.043-3.13,2.735-3.13
		c1.895,0,2.387,1.667,2.387,2.734c0,0.216-0.012,0.372-0.036,0.492H66.285z M69.367,99.333c0.012-0.671-0.276-1.715-1.451-1.715
		c-1.08,0-1.535,0.983-1.619,1.715H69.367z"/>
	<path d="M71.697,98.565c0-0.611-0.012-1.091-0.048-1.571h0.936l0.06,0.947h0.024c0.288-0.54,0.959-1.079,1.919-1.079
		c0.803,0,2.051,0.479,2.051,2.47v3.466h-1.056v-3.346c0-0.936-0.348-1.727-1.343-1.727c-0.684,0-1.223,0.492-1.415,1.08
		c-0.048,0.132-0.072,0.324-0.072,0.492v3.502h-1.056V98.565z"/>
	<path d="M79.581,95.603v1.391h1.511v0.803h-1.511v3.119c0,0.719,0.204,1.127,0.792,1.127c0.288,0,0.456-0.024,0.611-0.072
		l0.048,0.804c-0.204,0.072-0.528,0.144-0.936,0.144c-0.492,0-0.888-0.168-1.14-0.444c-0.288-0.324-0.408-0.84-0.408-1.523v-3.154
		h-0.899v-0.803h0.899v-1.067L79.581,95.603z"/>
	<path d="M82.281,98.805c0-0.684-0.012-1.271-0.048-1.811h0.923l0.048,1.139h0.036c0.264-0.779,0.912-1.271,1.619-1.271
		c0.108,0,0.192,0.012,0.288,0.024v0.995c-0.108-0.012-0.216-0.024-0.359-0.024c-0.744,0-1.271,0.564-1.416,1.343
		c-0.024,0.156-0.036,0.324-0.036,0.492v3.106h-1.056V98.805z"/>
	<path d="M90.235,101.408c0,0.503,0.024,0.995,0.084,1.391h-0.948l-0.096-0.731h-0.036c-0.312,0.456-0.947,0.863-1.775,0.863
		c-1.175,0-1.775-0.828-1.775-1.667c0-1.403,1.247-2.171,3.49-2.159v-0.12c0-0.479-0.132-1.355-1.319-1.343
		c-0.552,0-1.116,0.156-1.523,0.432l-0.24-0.708c0.479-0.3,1.187-0.503,1.919-0.503c1.787,0,2.219,1.211,2.219,2.375V101.408z
		 M89.203,99.836c-1.151-0.024-2.458,0.18-2.458,1.307c0,0.696,0.456,1.008,0.983,1.008c0.768,0,1.259-0.48,1.427-0.972
		c0.036-0.108,0.048-0.228,0.048-0.336V99.836z"/>
	<path d="M91.929,94.284h1.056v8.515h-1.056V94.284z"/>
	<path d="M95.265,96.011c-0.384,0-0.636-0.3-0.636-0.648c0-0.372,0.264-0.66,0.66-0.66c0.384,0,0.647,0.288,0.647,0.66
		c0,0.348-0.252,0.648-0.66,0.648H95.265z M94.761,102.799v-5.805h1.056v5.805H94.761z"/>
	<path d="M97.425,101.719c0.324,0.192,0.875,0.408,1.403,0.408c0.756,0,1.115-0.372,1.115-0.864c0-0.504-0.3-0.768-1.067-1.055
		c-1.055-0.384-1.547-0.96-1.547-1.644c0-0.935,0.768-1.703,2.003-1.703c0.587,0,1.104,0.156,1.415,0.359l-0.252,0.756
		c-0.228-0.132-0.647-0.336-1.187-0.336c-0.624,0-0.959,0.36-0.959,0.792c0,0.48,0.335,0.696,1.091,0.996
		c0.996,0.372,1.523,0.875,1.523,1.739c0,1.032-0.803,1.751-2.159,1.751c-0.636,0-1.223-0.168-1.631-0.408L97.425,101.719z"/>
	<path d="M102.92,100.088c0.024,1.415,0.923,2.003,1.979,2.003c0.755,0,1.223-0.132,1.607-0.3l0.192,0.755
		c-0.372,0.168-1.019,0.372-1.943,0.372c-1.775,0-2.854-1.188-2.854-2.927c0-1.751,1.043-3.13,2.735-3.13
		c1.895,0,2.387,1.667,2.387,2.734c0,0.216-0.012,0.372-0.036,0.492H102.92z M106.003,99.333c0.012-0.671-0.276-1.715-1.451-1.715
		c-1.08,0-1.535,0.983-1.619,1.715H106.003z"/>
	<path d="M113.346,94.284v7.016c0,0.516,0.012,1.103,0.048,1.499h-0.947l-0.048-1.007h-0.024c-0.324,0.647-1.02,1.139-1.967,1.139
		c-1.403,0-2.495-1.187-2.495-2.95c-0.012-1.943,1.2-3.118,2.603-3.118c0.9,0,1.5,0.419,1.751,0.875h0.024v-3.454H113.346z
		 M112.291,99.357c0-0.144-0.012-0.312-0.048-0.456c-0.156-0.66-0.731-1.211-1.523-1.211c-1.091,0-1.739,0.959-1.739,2.231
		c0,1.188,0.588,2.159,1.715,2.159c0.708,0,1.355-0.479,1.547-1.271c0.036-0.132,0.048-0.276,0.048-0.444V99.357z"/>
	<path d="M47.409,118.793v8.083h-1.056v-8.083H47.409z"/>
	<path d="M49.317,122.643c0-0.611-0.012-1.091-0.048-1.571h0.936l0.06,0.947h0.024c0.288-0.54,0.959-1.079,1.919-1.079
		c0.803,0,2.051,0.479,2.051,2.47v3.466h-1.056v-3.346c0-0.936-0.348-1.727-1.343-1.727c-0.684,0-1.223,0.492-1.415,1.08
		c-0.048,0.132-0.072,0.324-0.072,0.492v3.502h-1.056V122.643z"/>
	<path d="M57.201,119.68v1.392h1.511v0.803h-1.511v3.119c0,0.719,0.204,1.127,0.792,1.127c0.288,0,0.456-0.024,0.611-0.072
		l0.048,0.804c-0.204,0.072-0.528,0.144-0.936,0.144c-0.492,0-0.888-0.168-1.14-0.444c-0.288-0.324-0.408-0.84-0.408-1.523v-3.154
		H55.27v-0.803h0.899v-1.067L57.201,119.68z"/>
	<path d="M60.429,124.166c0.024,1.415,0.923,2.003,1.979,2.003c0.755,0,1.223-0.132,1.607-0.3l0.192,0.755
		c-0.372,0.168-1.019,0.372-1.943,0.372c-1.775,0-2.854-1.188-2.854-2.927c0-1.751,1.043-3.13,2.735-3.13
		c1.895,0,2.387,1.667,2.387,2.734c0,0.216-0.012,0.372-0.036,0.492H60.429z M63.512,123.41c0.012-0.671-0.276-1.715-1.451-1.715
		c-1.08,0-1.535,0.983-1.619,1.715H63.512z"/>
	<path d="M65.841,122.883c0-0.684-0.012-1.271-0.048-1.811h0.923l0.048,1.139h0.036c0.264-0.779,0.912-1.271,1.619-1.271
		c0.108,0,0.192,0.012,0.288,0.024v0.995c-0.108-0.012-0.216-0.024-0.36-0.024c-0.744,0-1.271,0.564-1.416,1.343
		c-0.024,0.156-0.036,0.324-0.036,0.492v3.106h-1.056V122.883z"/>
	<path d="M69.813,122.643c0-0.611-0.024-1.091-0.048-1.571h0.923l0.048,0.936h0.036c0.324-0.552,0.864-1.067,1.835-1.067
		c0.78,0,1.379,0.479,1.631,1.163h0.024c0.18-0.336,0.419-0.576,0.66-0.755c0.348-0.264,0.719-0.408,1.271-0.408
		c0.78,0,1.919,0.503,1.919,2.519v3.418h-1.031v-3.286c0-1.127-0.42-1.787-1.259-1.787c-0.612,0-1.067,0.444-1.259,0.947
		c-0.048,0.156-0.084,0.348-0.084,0.528v3.598h-1.031v-3.49c0-0.923-0.408-1.583-1.211-1.583c-0.648,0-1.14,0.528-1.308,1.056
		c-0.06,0.156-0.084,0.335-0.084,0.516v3.502h-1.031V122.643z"/>
	<path d="M80.421,124.166c0.024,1.415,0.924,2.003,1.979,2.003c0.755,0,1.223-0.132,1.607-0.3l0.192,0.755
		c-0.372,0.168-1.019,0.372-1.943,0.372c-1.775,0-2.854-1.188-2.854-2.927c0-1.751,1.043-3.13,2.735-3.13
		c1.895,0,2.387,1.667,2.387,2.734c0,0.216-0.012,0.372-0.036,0.492H80.421z M83.503,123.41c0.012-0.671-0.276-1.715-1.451-1.715
		c-1.08,0-1.535,0.983-1.619,1.715H83.503z"/>
	<path d="M90.846,118.361v7.016c0,0.516,0.012,1.103,0.048,1.499h-0.947l-0.048-1.007h-0.024c-0.324,0.647-1.02,1.139-1.967,1.139
		c-1.403,0-2.495-1.188-2.495-2.95c-0.012-1.943,1.2-3.118,2.603-3.118c0.9,0,1.5,0.419,1.751,0.875h0.024v-3.454H90.846z
		 M89.791,123.435c0-0.144-0.012-0.312-0.048-0.456c-0.156-0.66-0.731-1.211-1.523-1.211c-1.091,0-1.739,0.959-1.739,2.231
		c0,1.188,0.588,2.159,1.715,2.159c0.708,0,1.355-0.479,1.547-1.271c0.036-0.132,0.048-0.276,0.048-0.444V123.435z"/>
	<path d="M93.105,120.088c-0.384,0-0.636-0.3-0.636-0.648c0-0.372,0.264-0.66,0.66-0.66c0.384,0,0.647,0.288,0.647,0.66
		c0,0.348-0.252,0.648-0.66,0.648H93.105z M92.601,126.876v-5.805h1.056v5.805H92.601z"/>
	<path d="M99.499,125.485c0,0.503,0.024,0.995,0.084,1.391h-0.948l-0.096-0.731h-0.036c-0.312,0.456-0.947,0.863-1.775,0.863
		c-1.175,0-1.775-0.828-1.775-1.667c0-1.403,1.247-2.171,3.49-2.159v-0.12c0-0.479-0.132-1.355-1.319-1.343
		c-0.551,0-1.115,0.156-1.523,0.432l-0.24-0.708c0.479-0.3,1.188-0.503,1.919-0.503c1.787,0,2.219,1.211,2.219,2.375V125.485z
		 M98.468,123.914c-1.151-0.024-2.459,0.18-2.459,1.307c0,0.696,0.456,1.008,0.983,1.008c0.768,0,1.259-0.48,1.427-0.972
		c0.036-0.108,0.048-0.228,0.048-0.336V123.914z"/>
	<path d="M102.417,119.68v1.392h1.511v0.803h-1.511v3.119c0,0.719,0.204,1.127,0.792,1.127c0.288,0,0.456-0.024,0.611-0.072
		l0.048,0.804c-0.204,0.072-0.528,0.144-0.936,0.144c-0.492,0-0.888-0.168-1.14-0.444c-0.288-0.324-0.408-0.84-0.408-1.523v-3.154
		h-0.899v-0.803h0.899v-1.067L102.417,119.68z"/>
	<path d="M105.645,124.166c0.024,1.415,0.924,2.003,1.979,2.003c0.755,0,1.223-0.132,1.607-0.3l0.192,0.755
		c-0.372,0.168-1.019,0.372-1.943,0.372c-1.775,0-2.854-1.188-2.854-2.927c0-1.751,1.043-3.13,2.735-3.13
		c1.895,0,2.387,1.667,2.387,2.734c0,0.216-0.012,0.372-0.036,0.492H105.645z M108.727,123.41c0.012-0.671-0.276-1.715-1.451-1.715
		c-1.08,0-1.535,0.983-1.619,1.715H108.727z"/>
</g>
<rect x="32.954" y="40.221" fill="none" stroke="#D2D2D2" stroke-miterlimit="10" width="219" height="103"/>
</svg>
