<?xml version="1.0" encoding="utf-8"?>
<!-- Generator: Adobe Illustrator 16.0.0, SVG Export Plug-In . SVG Version: 6.00 Build 0)  -->
<!DOCTYPE svg PUBLIC "-//W3C//DTD SVG 1.1//EN" "http://www.w3.org/Graphics/SVG/1.1/DTD/svg11.dtd">
<svg version="1.1"
	 id="Layer_1" sodipodi:docname="efLogo.svg" inkscape:version="0.47 r22583" xmlns:dc="http://purl.org/dc/elements/1.1/" xmlns:cc="http://creativecommons.org/ns#" xmlns:rdf="http://www.w3.org/1999/02/22-rdf-syntax-ns#" xmlns:svg="http://www.w3.org/2000/svg" xmlns:sodipodi="http://sodipodi.sourceforge.net/DTD/sodipodi-0.dtd" xmlns:inkscape="http://www.inkscape.org/namespaces/inkscape"
	 xmlns="http://www.w3.org/2000/svg" xmlns:xlink="http://www.w3.org/1999/xlink" x="0px" y="0px" width="291px" height="291px"
	 viewBox="0 0 291 291" enable-background="new 0 0 291 291" xml:space="preserve">
<defs>
	
	
		<inkscape:perspective  id="perspective55" inkscape:persp3d-origin="302.5 : 97 : 1" inkscape:vp_z="605 : 145.5 : 1" inkscape:vp_x="0 : 145.5 : 1" sodipodi:type="inkscape:persp3d" inkscape:vp_y="0 : 1000 : 0">
		</inkscape:perspective>
</defs>
<sodipodi:namedview  id="namedview49" inkscape:window-y="110" inkscape:window-x="244" inkscape:window-height="814" inkscape:pageopacity="0" inkscape:window-maximized="0" inkscape:pageshadow="2" inkscape:window-width="1546" inkscape:current-layer="Layer_1" inkscape:cy="145.5" inkscape:cx="302.5" inkscape:zoom="0.81099656" showgrid="false" guidetolerance="10" gridtolerance="10" objecttolerance="10" borderopacity="1" bordercolor="#666666" pagecolor="#ffffff">
	</sodipodi:namedview>
<polygon id="polygon3" fill="#666666" points="61.218,78.364 65.095,89.626 76.889,89.626 67.488,96.874 70.902,108.168 
	61.218,101.429 51.537,108.168 54.953,96.874 45.552,89.626 57.346,89.626 "/>
<polygon id="polygon5" fill="#666666" points="99.032,41.367 102.298,52.825 114.076,53.456 104.297,60.192 107.108,71.646 
	97.796,64.402 87.767,70.613 91.785,59.518 82.783,51.777 94.561,52.411 "/>
<polygon id="polygon7" fill="#666666" points="149.195,28.08 153.068,39.345 164.867,39.345 155.465,46.589 158.878,57.883 
	149.195,51.144 139.512,57.883 142.931,46.589 133.53,39.345 145.324,39.345 "/>
<polygon id="polygon9" fill="#666666" points="199.495,41.563 203.375,52.828 215.166,52.828 205.768,60.072 209.188,71.367 
	199.495,64.627 189.822,71.367 193.23,60.072 183.833,52.828 195.623,52.828 "/>
<polygon id="polygon11" fill="#666666" points="236.504,78.81 240.376,90.075 252.174,90.075 242.777,97.324 246.195,108.614 
	236.504,101.878 226.822,108.614 230.241,97.324 220.844,90.075 232.637,90.075 "/>
<polygon id="polygon13" fill="#666666" points="249.813,128.396 253.686,139.663 265.477,139.663 256.079,146.91 259.498,158.204 
	249.813,151.464 240.125,158.204 243.541,146.91 234.145,139.663 245.941,139.663 "/>
<polygon id="polygon15" fill="#666666" points="236.264,179.195 240.137,190.461 251.936,190.461 242.537,197.705 245.947,208.995 
	236.264,202.253 226.583,208.995 230.001,197.705 220.594,190.461 232.393,190.461 "/>
<polygon id="polygon17" fill="#666666" points="199.016,215.959 202.887,227.223 214.686,227.223 205.279,234.469 208.695,245.76 
	199.016,239.027 189.333,245.76 192.75,234.469 183.352,227.223 195.143,227.223 "/>
<polygon id="polygon19" fill="#666666" points="148.945,229.501 152.818,240.768 164.613,240.768 155.215,248.01 158.627,259.309 
	148.945,252.568 139.263,259.309 142.681,248.01 133.275,240.768 145.074,240.768 "/>
<polygon id="polygon21" fill="#666666" points="98.633,216.445 102.505,227.702 114.3,227.702 104.899,234.954 108.317,246.245 
	98.633,239.505 88.952,246.245 92.368,234.954 82.962,227.702 94.761,227.702 "/>
<polygon id="polygon23" fill="#666666" points="61.866,178.951 65.738,190.217 77.537,190.217 68.136,197.465 71.547,208.756 
	61.866,202.016 52.185,208.756 55.601,197.465 46.199,190.217 57.994,190.217 "/>
<polygon id="polygon25" fill="#666666" points="48.32,128.641 52.193,139.902 63.991,139.902 54.59,147.15 58.004,158.443 
	48.32,151.705 38.639,158.443 42.057,147.15 32.654,139.902 44.448,139.902 "/>
<path id="path27" fill="#666666" d="M132.16,160.496l12.938-12.938l-4.621-4.619l27.697-27.701l27.576,27.575l-27.455,27.458
	l-4.232-4.231l-13.184,13.183l9.799,9.795c0,0,2.946,2.928,7.452,2.996c4.5,0.084,8.024-2.996,8.024-2.996l39.07-39.063
	c0,0,2.358-2.853,2.396-6.857c0.039-4.008-2.747-7.67-2.747-7.67l-38.248-38.263c0,0-3.384-3.331-8.038-3.367
	c-4.657-0.042-7.909,3.367-7.909,3.367l-39.521,39.52c0,0-1.781,3.348-1.781,6.401c0,3.521,1.781,6.021,1.781,6.021L132.16,160.496z
	"/>
<path id="path29" fill="#666666" d="M151.969,138.463l13.014-13.013l9.977,10.096c0,0,2.559,3.009,2.559,7.244
	c0,4.651-2.688,7.282-2.688,7.282l-39.366,39.369c0,0-2.448,2.488-7.133,2.488c-4.479,0-7.476-2.646-7.476-2.646l-39.313-39.317
	c0,0-2.417-3.759-2.417-6.872c0-4.272,2.613-7.591,2.613-7.591l38.081-38.148c0,0,3.162-3.446,8.041-3.446
	c5.377,0,8.15,3.446,8.15,3.446l9.306,9.307L132.86,119.11l-4.231-4.231l-28.18,28.179l27.697,27.697l28.022-28.031L151.969,138.463
	z"/>
</svg>
