<?xml version="1.0" encoding="utf-8"?>
<!-- Generator: Adobe Illustrator 18.0.0, SVG Export Plug-In . SVG Version: 6.00 Build 0)  -->
<!DOCTYPE svg PUBLIC "-//W3C//DTD SVG 1.1//EN" "http://www.w3.org/Graphics/SVG/1.1/DTD/svg11.dtd">
<svg version="1.1" id="OSHA" xmlns="http://www.w3.org/2000/svg" xmlns:xlink="http://www.w3.org/1999/xlink" x="0px" y="0px"
	 viewBox="0 0 892.9 411.8" enable-background="new 0 0 892.9 411.8" xml:space="preserve">
<g id="EN">
	<path fill="#164194" d="M252.8,249.7h-10.6v15.9h12.1v4.2h-16.9v-42.5h16.2v4.2h-11.3v14h10.6V249.7z"/>
	<path fill="#164194" d="M276.4,261.5c0,3.4,0.2,6,0.3,8.3h-4.2l-0.3-3.2H272c-0.9,1.5-3.3,3.7-6.6,3.7c-5.4,0-7.4-4.2-7.4-11.7
		v-19.3h4.9v18.6c0,4.8,0.8,8.3,4.1,8.3c2.8,0,4.1-2.6,4.3-4c0.2-0.8,0.3-1.8,0.3-2.8v-20.1h4.9V261.5z"/>
	<path fill="#164194" d="M282.7,247.2c0-2.6-0.2-5.6-0.3-7.9h4.3l0.3,4.8h0.1c1-2.9,3.6-5.3,6.4-5.3c0.4,0,0.7,0.1,1,0.1v5
		c-0.3-0.1-0.6-0.1-1-0.1c-3.1,0-5.4,2.8-5.9,6.4c-0.1,0.8-0.2,1.8-0.2,2.8v16.9h-4.9V247.2z"/>
	<path fill="#164194" d="M316.7,254.6c0,11.8-5.5,15.8-10.1,15.8c-5.5,0-9.9-5-9.9-15.7c0-11.2,5-15.8,10.2-15.8
		C312.3,238.8,316.7,243.9,316.7,254.6z M301.5,254.6c0,5,0.9,11.9,5.3,11.9c4.2,0,5-7.2,5-11.9c0-4.7-0.8-11.8-5.1-11.8
		C302.3,242.7,301.5,249.9,301.5,254.6z"/>
	<path fill="#164194" d="M321.6,248.8c0-4.7-0.2-7.4-0.3-9.5h4.3l0.3,3.9h0.1c1.6-3.3,4-4.4,6.4-4.4c5.3,0,8.8,5.7,8.8,15.7
		c0,11.3-4.7,15.8-9.5,15.8c-2.8,0-4.5-1.8-5.3-3.5h-0.1v15.1h-4.9V248.8z M326.5,258.6c0,0.9,0,1.8,0.2,2.5
		c0.9,4.3,3.1,5.2,4.5,5.2c4,0,5.3-5.5,5.3-11.7c0-6.3-1.5-11.6-5.4-11.6c-2.2,0-4.2,2.8-4.5,5.5c-0.1,0.8-0.1,1.5-0.1,2.3V258.6z"
		/>
	<path fill="#164194" d="M350,255c0.1,9.3,3.7,11.3,7.2,11.3c2.1,0,3.8-0.5,5-1.2l0.8,3.6c-1.7,0.9-4.3,1.4-6.7,1.4
		c-7.3,0-11.1-6-11.1-15.3c0-9.9,4.2-16.1,10.3-16.1c6.2,0,8.7,6.6,8.7,13.5c0,1.1,0,2-0.1,2.7H350z M359.5,251.4
		c0.1-6.1-2.2-8.8-4.5-8.8c-3.2,0-4.8,4.7-5,8.8H359.5z"/>
	<path fill="#164194" d="M384.9,262.9c0,2.3,0,5,0.3,6.9h-4.4l-0.3-3.2h-0.2c-1.3,2.3-3.5,3.7-6,3.7c-4.1,0-7.2-3.5-7.2-8.7
		c0-7.6,6.1-11,13-11.1v-0.9c0-4.1-1-6.9-4.9-6.9c-1.9,0-3.6,0.6-5,1.6l-1.1-3.4c1.3-0.9,4.1-2,7.1-2c6.1,0,8.8,4,8.8,10.9V262.9z
		 M380.1,254.1c-2.5,0-8.4,0.4-8.4,7.1c0,4,2,5.4,3.7,5.4c2.1,0,4-1.6,4.5-4.6c0.1-0.6,0.1-1.2,0.1-1.7V254.1z"/>
	<path fill="#164194" d="M391,247.2c0-3.6-0.2-5.4-0.3-7.9h4.2l0.3,3.7h0.1c1.3-2.5,3.8-4.2,7-4.2c4.2,0,7.4,3.2,7.4,10.5v20.5h-4.9
		v-19.7c0-3.6-0.7-7.2-4.2-7.2c-2,0-4,1.7-4.6,5c-0.1,0.8-0.2,1.7-0.2,2.7v19.2H391V247.2z"/>
	<path fill="#164194" d="M432.5,257.1l-2.8,12.7H425l9.7-42.5h5.4l9.5,42.5h-4.8l-2.8-12.7H432.5z M441.3,253.2l-2.2-10.8
		c-0.6-3-1.2-6.6-1.7-9.7h-0.3c-0.5,3.2-1.1,6.9-1.7,9.7l-2.2,10.8H441.3z"/>
	<path fill="#164194" d="M471.6,265.9c0,8-1,11-3,13.2c-1.8,2.1-4.7,3.3-8.1,3.3c-2.6,0-5.1-0.6-6.7-1.5l1.1-3.8
		c1.2,0.6,3.2,1.3,5.7,1.3c3.8,0,6.2-2.4,6.2-9.3V266h-0.1c-1.1,2.4-3.3,3.7-5.9,3.7c-5.4,0-8.9-6.1-8.9-15.1
		c0-11.2,5.1-15.9,9.6-15.9c3.3,0,4.8,2.1,5.7,4h0.1l0.3-3.5h4.3c-0.1,2.1-0.3,4.9-0.3,9.5V265.9z M466.8,249.8
		c0-0.8-0.1-1.6-0.3-2.2c-0.6-2.1-1.6-4.7-4.4-4.7c-3.5,0-5.4,4.7-5.4,11.5c0,7.8,2.5,11.3,5.4,11.3c1.4,0,3.3-0.7,4.3-4.3
		c0.3-0.9,0.3-1.9,0.3-2.8V249.8z"/>
	<path fill="#164194" d="M481.2,255c0.1,9.3,3.7,11.3,7.2,11.3c2.1,0,3.8-0.5,5-1.2l0.8,3.6c-1.7,0.9-4.3,1.4-6.7,1.4
		c-7.3,0-11.1-6-11.1-15.3c0-9.9,4.2-16.1,10.3-16.1c6.2,0,8.7,6.6,8.7,13.5c0,1.1,0,2-0.1,2.7H481.2z M490.8,251.4
		c0.1-6.1-2.2-8.8-4.5-8.8c-3.2,0-4.8,4.7-5,8.8H490.8z"/>
	<path fill="#164194" d="M500.1,247.2c0-3.6-0.2-5.4-0.3-7.9h4.2l0.3,3.7h0.1c1.3-2.5,3.8-4.2,7-4.2c4.2,0,7.4,3.2,7.4,10.5v20.5
		H514v-19.7c0-3.6-0.7-7.2-4.2-7.2c-2,0-4,1.7-4.6,5c-0.1,0.8-0.2,1.7-0.2,2.7v19.2h-4.9V247.2z"/>
	<path fill="#164194" d="M539.9,269.1c-1.1,0.6-2.9,1.1-5,1.1c-6.7,0-11.2-5.4-11.2-15.4c0-8.8,4.4-15.9,12-15.9
		c1.6,0,3.4,0.4,4.3,0.9l-0.9,4c-0.6-0.3-1.9-0.8-3.5-0.8c-4.9,0-7.1,5.8-7.1,11.8c0,7.1,2.7,11.4,7.2,11.4c1.3,0,2.4-0.3,3.5-0.8
		L539.9,269.1z"/>
	<path fill="#164194" d="M547.7,239.3l4,17.5c0.6,2.4,0.9,4.4,1.3,6.3h0.1c0.3-1.7,0.8-4,1.3-6.2l3.6-17.6h4.8l-5,19.6
		c-1.9,7.7-4,15.1-7.6,19.7c-2.1,2.7-4.4,4.2-5.5,4.7l-1.8-4.2c1.4-0.8,2.9-2.1,4.3-3.8c1.3-1.6,2.3-3.7,2.8-5.1
		c0.3-0.8,0.3-1.1,0.3-1.5c0-0.4,0-0.8-0.1-1.1l-7.7-28.2H547.7z"/>
	<path fill="#164194" d="M237.9,333.3v-26.8h-3.8v-3.7h3.8V301c0-3.3,0.5-6.7,2.7-9.2c1.8-2,4.2-2.6,6.1-2.6c1.6,0,2.9,0.3,3.8,0.8
		l-0.8,3.8c-0.6-0.3-1.4-0.5-2.6-0.5c-3.5,0-4.3,3.7-4.3,7.7v1.9h5.5v3.7h-5.5v26.8H237.9z"/>
	<path fill="#164194" d="M269.9,318.1c0,11.8-5.5,15.8-10.1,15.8c-5.5,0-9.9-5-9.9-15.7c0-11.2,5-15.8,10.2-15.8
		C265.5,302.3,269.9,307.4,269.9,318.1z M254.7,318.1c0,5,0.9,11.9,5.3,11.9c4.2,0,5-7.2,5-11.9c0-4.7-0.8-11.8-5.1-11.8
		C255.5,306.2,254.7,313.4,254.7,318.1z"/>
	<path fill="#164194" d="M274.8,310.7c0-2.6-0.2-5.6-0.3-7.9h4.3l0.3,4.8h0.1c1-2.9,3.6-5.3,6.4-5.3c0.4,0,0.7,0.1,1,0.1v5
		c-0.3-0.1-0.6-0.1-1-0.1c-3.1,0-5.4,2.8-5.9,6.4c-0.1,0.8-0.2,1.8-0.2,2.8v16.9h-4.9V310.7z"/>
	<path fill="#164194" d="M300.4,327.7c1.4,0.9,4,1.7,6.1,1.7c4.4,0,7.1-2.9,7.1-7.2c0-3.9-2.3-6.3-5.6-8.8c-3.3-2.3-8-6.3-8-11.8
		c0-6.4,4.5-11.2,11.2-11.2c2.6,0,5,0.8,6,1.6l-1.2,4.2c-1.1-0.8-2.8-1.4-5-1.4c-4.2,0-6.1,3.2-6.1,6c0,4.2,2.2,5.9,6.2,8.8
		c5.1,3.6,7.4,7.5,7.4,12.2c0,7.3-5.2,11.9-11.9,11.9c-2.9,0-6-0.9-7.2-1.8L300.4,327.7z"/>
	<path fill="#164194" d="M339.9,326.4c0,2.3,0,5,0.3,6.9h-4.4l-0.3-3.2h-0.2c-1.3,2.3-3.5,3.7-6,3.7c-4.1,0-7.2-3.5-7.2-8.7
		c0-7.6,6.1-11,13-11.1v-0.9c0-4.1-1-6.9-4.9-6.9c-1.9,0-3.6,0.6-5,1.6l-1.1-3.4c1.3-0.9,4.1-2,7.1-2c6.1,0,8.8,4,8.8,10.9V326.4z
		 M335.1,317.6c-2.5,0-8.4,0.4-8.4,7.1c0,4,2,5.4,3.7,5.4c2.1,0,4-1.6,4.5-4.6c0.1-0.6,0.1-1.2,0.1-1.7V317.6z"/>
	<path fill="#164194" d="M347.1,333.3v-26.8h-3.8v-3.7h3.8V301c0-3.3,0.5-6.7,2.7-9.2c1.8-2,4.2-2.6,6.1-2.6c1.6,0,2.9,0.3,3.8,0.8
		l-0.8,3.8c-0.6-0.3-1.4-0.5-2.6-0.5c-3.5,0-4.3,3.7-4.3,7.7v1.9h5.5v3.7H352v26.8H347.1z"/>
	<path fill="#164194" d="M363.7,318.5c0.1,9.3,3.7,11.3,7.2,11.3c2.1,0,3.8-0.5,5-1.2l0.8,3.6c-1.7,0.9-4.3,1.4-6.7,1.4
		c-7.3,0-11.1-6-11.1-15.3c0-9.9,4.2-16.1,10.3-16.1c6.2,0,8.7,6.6,8.7,13.5c0,1.1,0,2-0.1,2.7H363.7z M373.3,314.9
		c0.1-6.1-2.2-8.8-4.5-8.8c-3.2,0-4.8,4.7-5,8.8H373.3z"/>
	<path fill="#164194" d="M388.9,295.7v7.1h5.9v3.7h-5.9v18.1c0,4,1.4,5,3.2,5c0.8,0,1.4-0.1,2-0.2l0.2,3.7c-0.9,0.3-2,0.5-3.6,0.5
		c-1.9,0-3.6-0.5-4.8-1.8c-1.2-1.4-1.8-3.5-1.8-7.7v-17.6h-3.7v-3.7h3.7v-5.2L388.9,295.7z"/>
	<path fill="#164194" d="M402.6,302.8l4,17.5c0.6,2.4,0.9,4.4,1.3,6.3h0.1c0.3-1.7,0.8-4,1.3-6.2l3.6-17.6h4.8l-5,19.6
		c-1.9,7.7-4,15.1-7.6,19.7c-2.1,2.7-4.4,4.2-5.5,4.7l-1.8-4.2c1.4-0.8,2.9-2.1,4.3-3.8c1.3-1.6,2.3-3.7,2.8-5.1
		c0.3-0.8,0.3-1.1,0.3-1.5c0-0.4,0-0.8-0.1-1.1l-7.7-28.2H402.6z"/>
	<path fill="#164194" d="M448.5,326.4c0,2.3,0,5,0.3,6.9h-4.4l-0.3-3.2h-0.2c-1.3,2.3-3.5,3.7-6,3.7c-4.1,0-7.2-3.5-7.2-8.7
		c0-7.6,6.1-11,13-11.1v-0.9c0-4.1-1-6.9-4.9-6.9c-1.9,0-3.6,0.6-5,1.6l-1.1-3.4c1.3-0.9,4.1-2,7.1-2c6.1,0,8.8,4,8.8,10.9V326.4z
		 M443.7,317.6c-2.5,0-8.4,0.4-8.4,7.1c0,4,2,5.4,3.7,5.4c2.1,0,4-1.6,4.5-4.6c0.1-0.6,0.1-1.2,0.1-1.7V317.6z"/>
	<path fill="#164194" d="M454.6,310.7c0-3.6-0.2-5.4-0.3-7.9h4.2l0.3,3.7h0.1c1.3-2.5,3.8-4.2,7-4.2c4.2,0,7.4,3.2,7.4,10.5v20.5
		h-4.9v-19.7c0-3.6-0.7-7.2-4.2-7.2c-2,0-4,1.7-4.6,5c-0.1,0.8-0.2,1.7-0.2,2.7v19.2h-4.9V310.7z"/>
	<path fill="#164194" d="M498,289.7V326c0,2.1,0.2,5.5,0.3,7.3h-4.2l-0.3-3.8h-0.2c-1,2.2-3.2,4.3-6.4,4.3c-5.2,0-8.9-5.6-8.9-15.6
		c0-10.8,4.5-15.9,9.2-15.9c2.2,0,4.3,1.1,5.5,3.7h0.1v-16.3H498z M493.2,314.4c0-0.6,0-1.3-0.1-2c-0.3-3.2-2.2-5.9-4.5-5.9
		c-4,0-5.4,5.6-5.4,11.7c0,6.4,1.6,11.6,5.2,11.6c1.5,0,3.6-0.8,4.7-5.2c0.1-0.6,0.2-1.3,0.2-2V314.4z"/>
	<path fill="#164194" d="M520.6,290.8v18.2h11.9v-18.2h4.9v42.5h-4.9v-19.8h-11.9v19.8h-4.9v-42.5H520.6z"/>
	<path fill="#164194" d="M547.4,318.5c0.1,9.3,3.7,11.3,7.2,11.3c2.1,0,3.8-0.5,5-1.2l0.8,3.6c-1.7,0.9-4.3,1.4-6.7,1.4
		c-7.3,0-11.1-6-11.1-15.3c0-9.9,4.2-16.1,10.3-16.1c6.2,0,8.7,6.6,8.7,13.5c0,1.1,0,2-0.1,2.7H547.4z M557,314.9
		c0.1-6.1-2.2-8.8-4.5-8.8c-3.2,0-4.8,4.7-5,8.8H557z"/>
	<path fill="#164194" d="M582.3,326.4c0,2.3,0,5,0.3,6.9h-4.4l-0.3-3.2h-0.2c-1.3,2.3-3.5,3.7-6,3.7c-4.1,0-7.2-3.5-7.2-8.7
		c0-7.6,6.1-11,13-11.1v-0.9c0-4.1-1-6.9-4.9-6.9c-1.9,0-3.6,0.6-5,1.6l-1.1-3.4c1.3-0.9,4.1-2,7.1-2c6.1,0,8.8,4,8.8,10.9V326.4z
		 M577.5,317.6c-2.5,0-8.4,0.4-8.4,7.1c0,4,2,5.4,3.7,5.4c2.1,0,4-1.6,4.5-4.6c0.1-0.6,0.1-1.2,0.1-1.7V317.6z"/>
	<path fill="#164194" d="M588.4,289.7h4.9v43.6h-4.9V289.7z"/>
	<path fill="#164194" d="M605.8,295.7v7.1h5.9v3.7h-5.9v18.1c0,4,1.4,5,3.2,5c0.8,0,1.4-0.1,2-0.2l0.2,3.7c-0.9,0.3-2,0.5-3.6,0.5
		c-1.9,0-3.6-0.5-4.8-1.8c-1.2-1.4-1.8-3.5-1.8-7.7v-17.6h-3.7v-3.7h3.7v-5.2L605.8,295.7z"/>
	<path fill="#164194" d="M615.6,289.7h4.9v16.4h0.1c0.6-1.1,1.6-2,2.5-2.6c1.1-0.7,2.3-1.1,4.1-1.1c3.8,0,7.1,3.1,7.1,10.8v20.2
		h-4.9v-19.7c0-3.7-0.8-7.2-4.1-7.2c-2.3,0-4,1.6-4.7,4.9c-0.1,0.7-0.2,1.6-0.2,2.3v19.7h-4.9V289.7z"/>
	<path fill="#164194" d="M253,389.9c0,2.3,0,5,0.3,6.9h-4.4l-0.3-3.2h-0.2c-1.3,2.3-3.5,3.7-6,3.7c-4.1,0-7.2-3.5-7.2-8.7
		c0-7.6,6.1-11,13-11.1v-0.9c0-4.1-1-6.9-4.9-6.9c-1.9,0-3.6,0.6-5,1.6l-1.1-3.4c1.3-0.9,4.1-2,7.1-2c6.1,0,8.8,4,8.8,10.9V389.9z
		 M248.2,381.1c-2.5,0-8.4,0.4-8.4,7.1c0,4,2,5.4,3.7,5.4c2.1,0,4-1.6,4.5-4.6c0.1-0.6,0.1-1.2,0.1-1.7V381.1z"/>
	<path fill="#164194" d="M265,359.2v7.1h5.9v3.7H265v18.1c0,4,1.4,5,3.2,5c0.8,0,1.4-0.1,2-0.2l0.2,3.7c-0.9,0.3-2,0.5-3.6,0.5
		c-1.9,0-3.6-0.5-4.8-1.8c-1.2-1.4-1.8-3.5-1.8-7.7V370h-3.7v-3.7h3.7v-5.2L265,359.2z"/>
	<path fill="#164194" d="M291.7,396.8l-8.2-42.5h5l3.6,20.5c0.9,5.4,1.6,10.1,2.1,15.3h0.3c0.5-5.4,1.5-10,2.5-15.4l3.9-20.4h4.2
		l3.9,20c0.9,5,1.9,9.9,2.5,15.8h0.2c0.7-6.1,1.4-10.8,2.3-15.6l3.5-20.2h4.7l-8.3,42.5h-4.7l-4.1-20.7c-0.8-4.5-1.6-9.3-2.1-13.9
		h-0.1c-0.6,4.8-1.3,9.4-2.3,14.1l-4.2,20.5H291.7z"/>
	<path fill="#164194" d="M343.5,381.6c0,11.8-5.5,15.8-10.1,15.8c-5.5,0-9.9-5-9.9-15.7c0-11.2,5-15.8,10.2-15.8
		C339.1,365.8,343.5,370.9,343.5,381.6z M328.4,381.6c0,5,0.9,11.9,5.3,11.9c4.2,0,5-7.2,5-11.9c0-4.7-0.8-11.8-5.1-11.8
		C329.2,369.7,328.4,376.9,328.4,381.6z"/>
	<path fill="#164194" d="M348.5,374.2c0-2.6-0.2-5.6-0.3-7.9h4.3l0.3,4.8h0.1c1-2.9,3.6-5.3,6.4-5.3c0.4,0,0.7,0.1,1,0.1v5
		c-0.3-0.1-0.6-0.1-1-0.1c-3.1,0-5.4,2.8-5.9,6.4c-0.1,0.8-0.2,1.8-0.2,2.8v16.9h-4.9V374.2z"/>
	<path fill="#164194" d="M368.9,380.5h0.1c0.6-1.2,1.1-2.4,1.6-3.4l6-10.8h5.2l-8.1,12.9l8.8,17.6h-5.4l-6.6-14.4l-1.7,2.8v11.5H364
		v-43.6h4.9V380.5z"/>
</g>
<path fill="#FFFFFF" d="M215.3,148.8l13.6,49.6c-49.6,50-111.9,106.3-182.8,106.3c-65.6,0-47.9-56-4.3-106.3c0,0-48.7,76.5-2.8,76.5
	C99.6,275,162.5,214.7,215.3,148.8 M216.6,142.7l-3.5,4.3c-30.6,38.1-58.3,66.7-84.8,87.3c-32.2,25.1-62.2,37.8-89.3,37.8
	c-7.6,0-12.5-2.2-14.9-6.6c-8.2-14.9,11.8-52.4,20.1-65.5c0,0,0.7-1,3-4.9l-1.7-5c-2.5,2.7-5.9,6.5-5.9,6.5
	C7.4,233.7-6.4,267.9,2.8,288c5.9,13,20.5,19.5,43.3,19.5c32.6,0,65.6-11.4,101-34.9c31.3-20.8,60-48.2,83.9-72.2l1.2-1.2
	L216.6,142.7L216.6,142.7z"/>
<g>
	<path fill="#FFFFFF" d="M165.2,59.6c-18,0-39.2,10-49.7,25.4c15.8-10.5,25.4-14.7,32.3-14.7c3.9,0,7,1.4,9.8,3.7
		c10.4,8.4,2.3,39.7-50.6,89.8l29.2,24.4c21.8-25,66.9-77.2,58.4-108.7C190.9,65.5,179,59.6,165.2,59.6z"/>
	<path fill="#FFFFFF" d="M197.4,78.7c-3.8-14-15.5-22-32.2-22l0,0l0,0h0c-19.6,0-41.5,11.2-52,26.7c0,0-0.3,0.4-0.7,1.2
		c-0.2,2.2-0.3,4.3-0.2,6.4c3.4-2.6,4.8-3.6,4.8-3.6c14.8-9.8,24.3-14.2,30.7-14.2c3,0,5.5,0.9,8.1,3c1.8,1.4,2.7,3.8,2.8,7
		c0.2,6.3-2.9,30.4-53.6,78.5l-2.3,2.2l34,28.2l1.8-2.1c17.4-20,31.7-36.3,41.3-51.8C195.4,113.3,201.3,93.2,197.4,78.7z
		 M136.2,188.2L107,163.8c52.9-50.1,61-81.3,50.6-89.8c-2.8-2.3-5.9-3.7-9.8-3.7c-6.9,0-16.4,4.1-32.3,14.7
		c10.5-15.4,31.7-25.4,49.7-25.4c13.8,0,25.7,5.9,29.5,19.9C203.2,111,158,163.2,136.2,188.2z"/>
</g>
<path fill="#575756" d="M119.4,147.6C106.2,109.7,100.5,67,136.8,4.3h-6.7c-36.3,65-28.6,108.3-14.8,147.5
	C116.7,150.4,118.1,149,119.4,147.6z"/>
<path fill="#575756" d="M140.8,224.1c1.7-1.4,3.3-2.9,5-4.4c-1.8-6-3.7-11.7-5.4-17.1c-1.1-3.5-2.3-7-3.5-10.5l-9.1-7.5
	c1.7,4.5,3.3,9.2,4.8,13.7C135.1,206.4,138,214.9,140.8,224.1z"/>
<path fill="#575756" d="M151.3,269.8c5.2,35.8,3.4,78.2-18.8,127.1H76.6c-0.7,1.6-1.4,3.3-2.2,5h62.4c23.9-52.7,25.5-98,19.8-135.7
	C154.8,267.3,153.1,268.6,151.3,269.8z"/>
<path fill="#B2B2B2" d="M87.4,260.1c13.2-6.2,26.9-14.8,41-25.8c4.1-3.2,8.3-6.6,12.5-10.2c-2.8-9.2-5.7-17.8-8.2-25.7
	c-1.5-4.6-3.1-9.2-4.8-13.7L105.2,166l-2.5-2l2.3-2.2c3.7-3.5,7.1-6.8,10.2-10c-14.1-40-21.8-84.4,17.2-151.8H70.2
	c-54.5,94.1-17.9,143.2,0,198.4C75.8,215.9,83,236.5,87.4,260.1z"/>
<path fill="#B2B2B2" d="M147.1,272.7c-19.1,12.7-37.6,21.9-55.7,27.6c0.3,28.7-5,60.9-21.2,96.6h62.4c22.2-48.9,24-91.3,18.8-127.1
	C149.9,270.7,148.5,271.7,147.1,272.7z"/>
<path fill="#164194" d="M194.7,79.5c-3.8-13.9-15.7-19.9-29.5-19.9c-18,0-39.2,10-49.7,25.4c15.8-10.5,25.4-14.7,32.3-14.7
	c3.9,0,7,1.4,9.8,3.7c10.4,8.4,2.3,39.7-50.6,89.8l29.2,24.4C158,163.2,203.2,111,194.7,79.5z"/>
<path fill="#164194" d="M46.1,304.7c70.9,0,133.2-56.3,182.8-106.3l-13.6-49.6C162.5,214.7,99.6,275,39,275
	c-45.9,0,2.8-76.5,2.8-76.5C-1.8,248.7-19.6,304.7,46.1,304.7z"/>
</svg>
